<svg xmlns="http://www.w3.org/2000/svg" viewBox="0 0 358.317 68.657" role="img" aria-label="University of Illinois Chicago"><title>University of Illinois Chicago</title><g fill="#001e62"><path d="M92.786 19.816a4.11 4.11 0 01-.242 1.888l-.002.004a2.517 2.517 0 01-4.181-.004 4.112 4.112 0 01-.242-1.888v-6.753h-2.203v6.787a5.872 5.872 0 00.603 3.211 5.143 5.143 0 007.868-.001 5.87 5.87 0 00.602-3.21v-6.788h-2.203zM109.33 16.994c0 1.092.015 2.402.025 3.269l.005.463c-.206-.333-.499-.8-.684-1.083l-4.35-6.535-.03-.045h-2.039v11.626h2.203v-3.915c0-1.61-.012-3.101-.025-3.863l.011.02c.138.23.326.545.516.841l4.501 6.87.03.047h2.039V13.062h-2.203zM118.879 13.063h2.22v11.626h-2.22zM132.756 20.83l-.323 1.115a22.824 22.824 0 00-.287-1.116l-2.341-7.766h-2.33l3.585 11.554.022.072h2.618l3.762-11.627h-2.299zM145.767 19.683h5.426v-2.001h-5.426v-2.618h5.98v-2.001h-8.2v11.626h8.62v-2.001h-6.4v-3.005z"/><path d="M166.134 19.498a3.356 3.356 0 001.557-2.89 3.264 3.264 0 00-1.68-3.011 5.76 5.76 0 00-2.924-.535h-4.284V24.69h2.22V20.12h1.905l2.654 4.569h2.64l-2.885-4.82a4.82 4.82 0 00.797-.371zm-5.112-4.45h2.065a3.96 3.96 0 011.572.21 1.375 1.375 0 01.745 1.3 1.438 1.438 0 01-.745 1.335 3.959 3.959 0 01-1.572.21h-2.065z"/><path d="M179.568 17.903l-1.377-.303c-1.355-.299-1.768-.613-1.768-1.345 0-.866.784-1.426 1.998-1.426a3.669 3.669 0 012.877 1.34l.064.078 1.692-1.375-.073-.08a5.907 5.907 0 00-4.51-1.931c-2.56 0-4.418 1.47-4.418 3.494 0 2.32 1.874 3.023 3.506 3.376l1.53.336c1.153.25 1.867.569 1.867 1.378 0 .904-.828 1.444-2.216 1.444a3.919 3.919 0 01-3.306-1.698l-.057-.095-1.852 1.334.06.083a6.186 6.186 0 005.054 2.377c2.848 0 4.687-1.424 4.687-3.63 0-2.08-1.437-2.827-3.758-3.357zM189.965 13.063h2.218v11.626h-2.218zM198.459 15.064h3.343v9.625h2.219v-9.625h3.325v-2.001h-8.887v2.001zM217.674 17.855l-2.867-4.792h-2.574l4.23 6.883v4.743h2.218v-4.741l4.471-6.885h-2.563l-2.915 4.792z"/><path d="M241.214 12.861c-3.296 0-5.511 2.417-5.511 6.015 0 3.71 2.111 6.014 5.51 6.014s5.51-2.304 5.51-6.014c0-3.598-2.214-6.015-5.51-6.015zm0 2.001c1.916 0 3.106 1.538 3.106 4.014 0 2.492-1.161 3.98-3.106 3.98s-3.107-1.488-3.107-3.98c0-2.476 1.19-4.014 3.107-4.014z"/><path d="M260.476 15.064v-2.001h-7.561v11.626h2.22v-4.855h5.122v-2.001h-5.122v-2.769h5.341z"/><path d="M90.592 55.46h-4.684V34.364h4.684zM100.315 34.365V51.24h8.438v4.219H95.63V34.365zM116.586 34.365V51.24h8.437v4.219h-13.121V34.365zM132.856 55.46h-4.684V34.364h4.684zM147.698 42.616a143.408 143.408 0 013.102 5.398h.03s-.185-4.156-.185-6.608v-7.041h4.622v21.094h-4.715l-4.995-8.128c-1.178-1.954-3.195-5.677-3.195-5.677h-.03s.216 3.506.216 6.887v6.918h-4.653V34.365h4.746zM169.517 33.992c6.236 0 10.206 4.437 10.206 10.92 0 6.453-3.691 10.92-10.206 10.92-6.421 0-10.206-4.467-10.206-10.92 0-6.483 3.971-10.92 10.206-10.92zm0 17.9c3.568 0 5.522-2.575 5.522-6.98s-2.016-7.073-5.522-7.073c-3.536 0-5.522 2.668-5.522 7.073s1.924 6.98 5.522 6.98zM188.494 55.46h-4.685V34.364h4.685zM206.394 40.166a7.883 7.883 0 00-5.46-2.296c-1.954 0-3.32.807-3.32 2.14 0 1.365.962 1.924 2.885 2.296l3.412.683c3.91.775 6.36 2.327 6.36 6.05 0 4.372-3.877 6.792-8.872 6.792a11.975 11.975 0 01-9.524-4.405l3.258-2.79a7.94 7.94 0 006.39 3.287c2.451 0 3.878-.962 3.878-2.513 0-1.458-1.241-1.86-3.164-2.203l-2.73-.527c-3.847-.744-6.763-2.14-6.763-6.266 0-3.785 3.505-6.421 8.127-6.421a11.527 11.527 0 018.5 3.319zM239.712 50.837c-1.582 3.102-4.311 4.994-8.561 4.994-6.298 0-10.082-4.467-10.082-10.919 0-6.483 3.97-10.92 10.082-10.92a9.017 9.017 0 018.716 5.398l-3.908 1.644a4.803 4.803 0 00-4.747-3.195c-3.473 0-5.459 2.668-5.459 7.073s1.923 6.98 5.46 6.98a4.727 4.727 0 004.653-2.885zM247.95 46.711v8.748h-4.683V34.365h4.683v8.127h7.818v-8.127h4.684v21.094h-4.684v-8.748zM270.22 55.46h-4.684V34.364h4.684zM292.9 50.837c-1.581 3.102-4.31 4.994-8.56 4.994-6.298 0-10.083-4.467-10.083-10.919 0-6.483 3.97-10.92 10.082-10.92a9.017 9.017 0 018.717 5.398l-3.908 1.645a4.803 4.803 0 00-4.747-3.196c-3.474 0-5.46 2.668-5.46 7.073s1.924 6.98 5.46 6.98a4.727 4.727 0 004.653-2.884zM299.409 55.46h-4.933l7.104-21.095h5.677l7.042 21.094h-5.027l-1.24-4.187h-7.414zm5.676-13.99c-.372-1.335-.713-2.73-.713-2.73h-.03s-.373 1.396-.776 2.76l-1.8 5.926h5.056zM325.593 33.992a9.017 9.017 0 018.717 5.398l-3.908 1.645a4.803 4.803 0 00-4.747-3.196c-3.474 0-5.49 2.668-5.49 7.073 0 4.467 1.954 7.166 5.521 7.166 3.071 0 4.467-1.955 4.716-4.467h-5.987v-4.126h10.02v11.974h-4.096v-1.861a7.215 7.215 0 01-5.49 2.233c-5.77 0-9.337-4.467-9.337-10.919 0-6.483 3.97-10.92 10.081-10.92zM348.11 33.992c6.236 0 10.207 4.437 10.207 10.92 0 6.453-3.692 10.92-10.206 10.92-6.422 0-10.206-4.467-10.206-10.92 0-6.483 3.97-10.92 10.206-10.92zm0 17.9c3.568 0 5.522-2.575 5.522-6.98s-2.015-7.073-5.521-7.073c-3.536 0-5.522 2.668-5.522 7.073s1.923 6.98 5.522 6.98z"/></g><path fill="#fff" d="M31.745 24.171h6.717v22.392h-6.717zM20.946 37.54a4.768 4.768 0 01-.757 3.163 3.24 3.24 0 01-2.632.922 3.24 3.24 0 01-2.636-.922 4.767 4.767 0 01-.758-3.163V24.171H7.444V37.41c0 3.129.331 4.641 1.222 6.159 1.481 2.47 5.431 3.423 8.89 3.423 3.455 0 7.408-.954 8.889-3.423.89-1.518 1.221-3.03 1.221-6.159V24.171h-6.72zM52.884 41.526c-2.864 0-4.315-2.306-4.315-6.16 0-3.882 1.45-6.253 4.315-6.253 2.107 0 3.326 1.283 3.888 3.455l5.825-2.798c-1.12-2.93-4.278-5.992-9.612-5.992-6.981 0-11.262 4.71-11.262 11.588 0 6.85 4.05 11.592 11.13 11.592 5.102 0 8.298-2.469 9.877-6.06l-6.092-2.171a3.724 3.724 0 01-3.754 2.799z"/><path d="M34.331 0a34.328 34.328 0 1034.33 34.328A34.33 34.33 0 0034.331 0zm-19.41 40.703a3.24 3.24 0 002.636.921 3.24 3.24 0 002.632-.92 4.768 4.768 0 00.757-3.164V24.17h6.72V37.41c0 3.129-.331 4.641-1.22 6.159-1.482 2.47-5.435 3.423-8.889 3.423-3.46 0-7.41-.954-8.891-3.423-.89-1.518-1.221-3.03-1.221-6.159V24.171h6.719V37.54a4.767 4.767 0 00.757 3.163zm16.825 5.86V24.172h6.717v22.393zm21.106.395c-7.08 0-11.13-4.742-11.13-11.592 0-6.878 4.282-11.587 11.263-11.587 5.334 0 8.493 3.06 9.612 5.992l-5.826 2.798c-.561-2.173-1.78-3.456-3.887-3.456-2.864 0-4.315 2.371-4.315 6.253 0 3.854 1.45 6.16 4.315 6.16a3.724 3.724 0 003.754-2.799l6.092 2.171c-1.58 3.592-4.775 6.06-9.878 6.06z" fill="#d50032"/></svg>
